Coordinates
version=1
nRows=7
nColumns=32
inDegrees=yes

Units are S.I. units (second, meters, Newtons, ...)
If the header above contains a line with 'inDegrees', this indicates whether rotational values are in degrees (yes) or radians (no).

endheader
time	pelvis_tilt	pelvis_list	pelvis_rotation	pelvis_tx	pelvis_ty	pelvis_tz	hip_flexion_r	hip_adduction_r	hip_rotation_r	knee_angle_r	knee_adduction_r	med_cond_adduction_r	lat_cond_adduction_r	patella_r_constrained_knee_angle	hip_flexion_l	hip_adduction_l	hip_rotation_l	knee_angle_l	knee_adduction_l	med_cond_adduction_l	lat_cond_adduction_l	patella_l_constrained_knee_angle	lumbar_extension	lumbar_bending	lumbar_rotation	ankle_angle_r	subtalar_angle_r	mtp_angle_r	ankle_angle_l	subtalar_angle_l	mtp_angle_l
      2.93500000	    -65.45084219	     -0.49093535	      5.01139737	      0.85646538	      0.68685294	     -0.36497474	     95.46842318	     -8.42403465	     -2.42608881	    -73.52461846	      1.90727580	      0.00000000	      0.00000000	     -1.28324667	     88.91193675	      6.57105759	     -1.94191609	    -41.52059779	     -3.99748488	      0.00000000	      0.00000000	     -0.72467114	     73.63702203	     -1.35836180	     -5.65345725	      1.91017488	      6.03471284	     -0.00000000	     11.41445167	     14.30076673	     -0.00000000
      2.94000000	    -65.66621436	     -0.76726626	      5.34676615	      0.86294482	      0.68750523	     -0.36439151	     96.13068121	     -8.63933214	     -2.32102227	    -72.16812732	      2.16485281	      0.00000000	      0.00000000	     -1.25957144	     88.45636096	      6.76198886	     -1.74468232	    -41.21054867	     -4.02840506	      0.00000000	      0.00000000	     -0.71925976	     74.00199221	     -1.83375481	     -6.10813395	      2.19181162	      5.58942031	      0.00000000	     11.64491597	     14.43302382	      0.00000000
      2.94500000	    -65.87820419	     -0.90915192	      5.70876894	      0.86944553	      0.68806546	     -0.36379701	     96.79578307	     -8.89343094	     -2.03477388	    -70.77052213	      2.44235923	     -0.00000000	     -0.00000000	     -1.23517862	     87.97328584	      7.00987365	     -1.68023253	    -40.85746883	     -4.09323245	     -0.00000000	     -0.00000000	     -0.71309736	     74.37264431	     -2.45253442	     -6.40475350	      2.49731882	      5.29646922	      0.00000000	     11.89239052	     14.52742454	     -0.00000000
      2.95000000	    -66.10572080	     -1.35320990	      5.98053206	      0.87592504	      0.68851320	     -0.36313901	     97.38415300	     -9.01595728	     -2.21591731	    -69.24671676	      2.48662315	     -0.00000000	     -0.00000000	     -1.20858320	     87.56988761	      7.08201261	     -1.28278260	    -40.63194136	     -4.05895674	      0.00000000	      0.00000000	     -0.70916116	     74.75051071	     -2.73347244	     -7.08576160	      2.72892575	      4.49032363	      0.00000000	     12.15479976	     14.62687559	      0.00000000
      2.95500000	    -66.34037100	     -1.65556595	      6.27766478	      0.88239107	      0.68883701	     -0.36243933	     97.99449183	     -9.17075512	     -2.22592844	    -67.70164472	      2.52854298	      0.00000000	      0.00000000	     -1.18161661	     87.15997312	      7.20924628	     -0.99861313	    -40.39572652	     -4.03620363	      0.00000000	      0.00000000	     -0.70503843	     75.12986055	     -3.17777974	     -7.52636290	      2.96360443	      3.91254344	      0.00000000	     12.42914202	     14.75444950	     -0.00000000
      2.96000000	    -66.56795614	     -1.99019678	      6.55558904	      0.88883986	      0.68905004	     -0.36174711	     98.57231229	     -9.30446325	     -2.29550728	    -66.09932643	      2.50071824	     -0.00000000	     -0.00000000	     -1.15365088	     86.76810874	      7.30827737	     -0.70085392	    -40.21613651	     -4.02606421	     -0.00000000	     -0.00000000	     -0.70190399	     75.49143059	     -3.56840520	     -7.96311518	      3.11852425	      3.29424316	      0.00000000	     12.66608875	     14.85077080	     -0.00000000
      2.96500000	    -66.80794050	     -2.21059980	      6.89368530	      0.89529711	      0.68915631	     -0.36102112	     99.17236110	     -9.48020149	     -2.29576879	    -64.48058502	      2.36607111	      0.00000000	      0.00000000	     -1.12539851	     86.36054154	      7.48958347	     -0.40131694	    -39.98140673	     -3.96124484	      0.00000000	      0.00000000	     -0.69780719	     75.83759381	     -4.14624510	     -8.35185252	      3.42241867	      2.77477026	      0.00000000	     12.95012326	     14.91176865	     -0.00000000
